<?xml version="1.0" standalone="no"?>
<!DOCTYPE svg PUBLIC "-//W3C//DTD SVG 1.0//EN" "http://www.w3.org/TR/2001/REC-SVG-20010904/DTD/svg10.dtd">
<svg xmlns="http://www.w3.org/2000/svg" xmlns:xlink="http://www.w3.org/1999/xlink" id="body_1" width="28" height="28">

<g transform="matrix(1.4 0 0 1.4 0 0)">
	<g transform="matrix(0.5 0 0 0.5 0 0)">
		<g transform="matrix(1.6666667 0 0 1.6666667 0 0)">
            <path d="M12 2C 6.48 2 2 6.48 2 12C 2 17.52 6.48 22 12 22C 17.52 22 22 17.52 22 12C 22 6.4799995 17.52 2 12 2zM12 5C 13.66 5 15 6.34 15 8C 15 9.66 13.66 11 12 11C 10.34 11 9 9.66 9 8C 9 6.34 10.34 5 12 5zM12 19.2C 9.5 19.2 7.29 17.92 6 15.9800005C 6.03 13.990001 10 12.900001 12 12.900001C 13.99 12.900001 17.97 13.990001 18 15.9800005C 16.71 17.92 14.5 19.2 12 19.2z" stroke="none" fill="#000000" fill-rule="nonzero" />
		</g>
	</g>
</g>
</svg>
