<?xml version="1.0" standalone="no"?>
<!DOCTYPE svg PUBLIC "-//W3C//DTD SVG 1.0//EN" "http://www.w3.org/TR/2001/REC-SVG-20010904/DTD/svg10.dtd">
<svg xmlns="http://www.w3.org/2000/svg" xmlns:xlink="http://www.w3.org/1999/xlink" id="body_1" width="52" height="52">

<g transform="matrix(1.3 0 0 1.3 0 0)">
	<g transform="matrix(1.6666667 0 0 1.6666667 0 0)">
		<g transform="matrix(0.375 0 0 0.375 0 0)">
			<g>
			</g>
			<g>
			</g>
			<g>
                <path d="M9 6C 9 4.34315 7.65685 3 6 3L6 3L4 3C 2.34315 3 1 4.34315 1 6L1 6L1 8C 1 9.65685 2.34315 11 4 11L4 11L6 11C 7.65685 11 9 9.65685 9 8L9 8L9 6zM7 6C 7 5.44772 6.55228 5 6 5L6 5L4 5C 3.44772 5 3 5.44772 3 6L3 6L3 8C 3 8.55228 3.44772 9 4 9L4 9L6 9C 6.55228 9 7 8.55228 7 8L7 8L7 6z" stroke="none" fill="#0F0F0F" fill-rule="nonzero" />
                <path d="M9 16C 9 14.3431 7.65685 13 6 13L6 13L4 13C 2.34315 13 1 14.3431 1 16L1 16L1 18C 1 19.6569 2.34315 21 4 21L4 21L6 21C 7.65685 21 9 19.6569 9 18L9 18L9 16zM7 16C 7 15.4477 6.55228 15 6 15L6 15L4 15C 3.44772 15 3 15.4477 3 16L3 16L3 18C 3 18.5523 3.44772 19 4 19L4 19L6 19C 6.55228 19 7 18.5523 7 18L7 18L7 16z" stroke="none" fill="#0F0F0F" fill-rule="nonzero" />
                <path d="M11 7C 11 6.44772 11.4477 6 12 6L12 6L22 6C 22.5523 6 23 6.44772 23 7C 23 7.55228 22.5523 8 22 8L22 8L12 8C 11.4477 8 11 7.55228 11 7z" stroke="none" fill="#0F0F0F" fill-rule="nonzero" />
                <path d="M11 17C 11 16.4477 11.4477 16 12 16L12 16L22 16C 22.5523 16 23 16.4477 23 17C 23 17.5523 22.5523 18 22 18L22 18L12 18C 11.4477 18 11 17.5523 11 17z" stroke="none" fill="#0F0F0F" fill-rule="nonzero" />
			</g>
		</g>
	</g>
</g>
</svg>
