<?xml version="1.0" standalone="no"?>
<!DOCTYPE svg PUBLIC "-//W3C//DTD SVG 1.0//EN" "http://www.w3.org/TR/2001/REC-SVG-20010904/DTD/svg10.dtd">
<svg xmlns="http://www.w3.org/2000/svg" xmlns:xlink="http://www.w3.org/1999/xlink" id="body_1" width="28" height="28">

<g transform="matrix(1.1666667 0 0 1.1666667 0 0)">
	<g>
	</g>
	<g>
	</g>
	<g>
		<g>
            <path d="M12 15L15 12zM15 12L12 9zM15 12L4 12zM9 7.24859L9 7.2002C 9 6.08009 9 5.51962 9.21799 5.0918C 9.40973 4.71547 9.71547 4.40973 10.0918 4.21799C 10.5196 4 11.0801 4 12.2002 4L12.2002 4L16.8002 4C 17.9203 4 18.4796 4 18.9074 4.21799C 19.2837 4.40973 19.5905 4.71547 19.7822 5.0918C 20 5.5192 20 6.07899 20 7.19691L20 7.19691L20 16.8036C 20 17.9215 20 18.4805 19.7822 18.9079C 19.5905 19.2842 19.2837 19.5905 18.9074 19.7822C 18.48 20 17.921 20 16.8031 20L16.8031 20L12.1969 20C 11.079 20 10.5192 20 10.0918 19.7822C 9.71547 19.5905 9.40973 19.2839 9.21799 18.9076C 9 18.4798 9 17.9201 9 16.8L9 16.8L9 16.75" stroke="#000000" stroke-width="2" stroke-linecap="square" fill="none" />
		</g>
	</g>
</g>
</svg>
